<svg width="32" height="32" viewBox="0 0 32 32" fill="none" xmlns="http://www.w3.org/2000/svg">
<path d="M28.9247 23.9488C28.8063 21.7312 27.0271 19.9552 24.8127 19.8368V18.1856H24.3391V19.8368C22.1215 19.9552 20.3455 21.7344 20.2271 23.9488H18.5951V24.4224H20.2271C20.3455 26.64 22.1247 28.416 24.3391 28.5376V30.1887H24.8127V28.5376C27.0303 28.4192 28.8063 26.64 28.9247 24.4224H30.9119V23.9488H28.9247ZM24.3359 28.0608C22.3807 27.9424 20.8159 26.3744 20.6975 24.4192H24.3359V28.0608ZM24.3359 23.9488H20.6975C20.8159 21.9936 22.3807 20.4288 24.3359 20.3104V23.9488ZM24.8127 28.0608V24.4224H28.4511C28.3327 26.3776 26.7679 27.9424 24.8127 28.0608ZM24.8127 23.9488V20.3104C26.7679 20.4288 28.3327 21.9936 28.4511 23.9488H24.8127V23.9488ZM22.4543 7.15839C22.3967 6.80319 22.6399 6.4672 22.9951 6.4096C23.1519 6.384 26.8383 5.7472 27.0623 2.5696C27.0879 2.2144 27.3951 1.9424 27.7567 1.9648C28.1151 1.9904 28.3871 2.304 28.3647 2.6624C28.0671 6.87999 23.2511 7.69279 23.1999 7.69919C23.1679 7.70559 23.1327 7.70559 23.0975 7.70559C22.7775 7.70879 22.5055 7.47839 22.4543 7.15839ZM2.78074 2.6624C2.75514 2.304 3.02714 1.9904 3.38554 1.9648C3.75674 1.9392 4.05754 2.2144 4.08314 2.5696C4.30394 5.7472 7.99034 6.384 8.15034 6.4096C8.50554 6.4672 8.74874 6.80319 8.69114 7.15839C8.63994 7.47519 8.36794 7.70879 8.04794 7.70879C8.01274 7.70879 7.97754 7.70559 7.94234 7.69919C7.89114 7.69279 3.07514 6.87999 2.78074 2.6624ZM25.4335 12.6688C25.6191 12.6752 30.0607 12.9024 30.9535 16.4704C30.9951 16.64 30.9695 16.816 30.8799 16.9632C30.7903 17.1136 30.6463 17.2192 30.4767 17.2608C30.4255 17.2736 30.3711 17.28 30.3199 17.28C30.0191 17.28 29.7599 17.0752 29.6863 16.7872C29.0335 14.176 25.4111 13.9744 25.3759 13.9744C25.2031 13.968 25.0399 13.8912 24.9247 13.7632C24.8063 13.6352 24.7455 13.4688 24.7519 13.2928C24.7679 12.9408 25.0527 12.6688 25.4015 12.6688H25.4335ZM5.91674 13.9744C5.88154 13.9776 2.25594 14.1856 1.60314 16.7872C1.52954 17.0784 1.27034 17.28 0.969539 17.28C0.915139 17.28 0.863939 17.2736 0.809539 17.2608C0.639939 17.2192 0.499139 17.1136 0.409539 16.9632C0.319939 16.8128 0.294339 16.64 0.335939 16.4704C1.22874 12.9024 5.67034 12.6784 5.85914 12.6688H5.88794C6.23994 12.6688 6.52474 12.944 6.54074 13.2928C6.55674 13.6512 6.27834 13.9552 5.91674 13.9744ZM12.5471 4.0512C12.5311 3.92 12.5215 3.792 12.5215 3.6608C12.5215 1.968 13.9007 0.588806 15.5935 0.588806C17.2863 0.588806 18.6655 1.968 18.6655 3.6608C18.6655 3.7888 18.6559 3.92 18.6399 4.0512C20.4831 4.864 22.0767 6.41599 23.1455 8.44159L23.2671 8.67519L23.0335 8.79679C21.0303 9.83679 18.7967 10.3648 16.3935 10.3648C12.8351 10.3648 9.79834 9.22559 8.30394 8.54399L8.04474 8.42559L8.18234 8.17919C9.24794 6.2848 10.7903 4.8256 12.5471 4.0512ZM9.13274 22.9792C9.21914 23.328 9.00794 23.6832 8.65914 23.7696C8.62714 23.7792 5.15834 24.7104 4.70714 27.7984C4.65914 28.1152 4.38394 28.3584 4.06074 28.3584C4.02874 28.3584 3.99674 28.3552 3.96474 28.352C3.60954 28.3008 3.35994 27.968 3.41434 27.6128C3.99354 23.6352 8.16314 22.5504 8.33914 22.5056C8.39034 22.4928 8.44474 22.4864 8.49914 22.4864C8.79994 22.4864 9.05914 22.688 9.13274 22.9792ZM24.5759 17.1968C24.4671 17.1968 24.3615 17.2096 24.2559 17.2128C24.4575 16.304 24.5695 15.3504 24.5695 14.3648C24.5695 12.6208 24.2431 10.9536 23.6031 9.41119L23.4943 9.14879L23.2415 9.27999C21.5775 10.1408 18.8863 10.64 16.9247 10.8192L16.7423 10.8352L16.6975 11.0144C16.1631 13.072 15.8495 15.5968 15.6639 17.9392C15.3727 14.2144 14.9407 11.056 14.9343 11.0048L14.9023 10.7808C11.4815 10.416 8.56954 9.23199 8.05754 9.00159L7.81754 8.89279L7.70874 9.13279C6.99514 10.7296 6.62074 12.5408 6.62074 14.368C6.62074 20.4128 10.6463 25.3344 15.5935 25.3344C16.2527 25.3344 16.8927 25.2416 17.5103 25.0752C17.8943 28.6336 20.9151 31.4143 24.5727 31.4143C28.4927 31.4111 31.6799 28.224 31.6799 24.304C31.6799 20.3872 28.4927 17.1968 24.5759 17.1968ZM24.5759 30.9375C20.9183 30.9375 17.9423 27.9616 17.9423 24.304C17.9423 20.6464 20.9183 17.6704 24.5759 17.6704C28.2335 17.6704 31.2095 20.6464 31.2095 24.304C31.2063 27.9616 28.2303 30.9375 24.5759 30.9375Z" fill="#EEEEEE"/>
</svg>
