<?xml version="1.0" standalone="no"?>
<!DOCTYPE svg PUBLIC "-//W3C//DTD SVG 20010904//EN"
 "http://www.w3.org/TR/2001/REC-SVG-20010904/DTD/svg10.dtd">
<svg version="1.0" xmlns="http://www.w3.org/2000/svg"
 width="24.000000pt" height="24.000000pt" viewBox="0 0 24.000000 24.000000"
 preserveAspectRatio="xMidYMid meet">

<g transform="translate(0.000000,24.000000) scale(0.100000,-0.100000)"
fill="#000000" stroke="none">
<path d="M30 201 c0 -6 18 -11 40 -11 l40 0 0 -45 c0 -36 -3 -45 -17 -45 -15
0 -14 -3 5 -22 l22 -22 22 22 c19 18 20 22 6 22 -13 0 -18 11 -20 53 l-3 52
-47 3 c-29 2 -48 -1 -48 -7z"/>
<path d="M30 40 c0 -5 16 -10 35 -10 19 0 35 5 35 10 0 6 -16 10 -35 10 -19 0
-35 -4 -35 -10z"/>
<path d="M140 40 c0 -5 16 -10 35 -10 19 0 35 5 35 10 0 6 -16 10 -35 10 -19
0 -35 -4 -35 -10z"/>
</g>
</svg>
